<mxfile host="app.diagrams.net" agent="Mozilla/5.0 (Windows NT 10.0; Win64; x64) AppleWebKit/537.36 (KHTML, like Gecko) Chrome/129.0.0.0 Safari/537.36" version="24.7.17">
  <diagram name="Страница — 1" id="wiB0xdLLIhYN8P5Gtzej">
    <mxGraphModel dx="2723" dy="3392" grid="1" gridSize="10" guides="1" tooltips="1" connect="1" arrows="1" fold="1" page="1" pageScale="1" pageWidth="827" pageHeight="1169" math="0" shadow="0">
      <root>
        <mxCell id="0" />
        <mxCell id="1" parent="0" />
        <mxCell id="2" value="Кинотеатр" style="swimlane;fontStyle=1;align=center;verticalAlign=top;childLayout=stackLayout;horizontal=1;startSize=30;horizontalStack=0;resizeParent=1;resizeParentMax=0;resizeLast=0;collapsible=0;marginBottom=0;" parent="1" vertex="1">
          <mxGeometry x="120" y="81" width="227" height="142" as="geometry" />
        </mxCell>
        <mxCell id="3" value="+ название: String" style="text;strokeColor=none;fillColor=none;align=left;verticalAlign=top;spacingLeft=4;spacingRight=4;overflow=hidden;rotatable=0;points=[[0,0.5],[1,0.5]];portConstraint=eastwest;" parent="2" vertex="1">
          <mxGeometry y="30" width="227" height="28" as="geometry" />
        </mxCell>
        <mxCell id="4" value="+ адрес: String" style="text;strokeColor=none;fillColor=none;align=left;verticalAlign=top;spacingLeft=4;spacingRight=4;overflow=hidden;rotatable=0;points=[[0,0.5],[1,0.5]];portConstraint=eastwest;" parent="2" vertex="1">
          <mxGeometry y="58" width="227" height="28" as="geometry" />
        </mxCell>
        <mxCell id="5" value="+ номер телефона: String" style="text;strokeColor=none;fillColor=none;align=left;verticalAlign=top;spacingLeft=4;spacingRight=4;overflow=hidden;rotatable=0;points=[[0,0.5],[1,0.5]];portConstraint=eastwest;" parent="2" vertex="1">
          <mxGeometry y="86" width="227" height="28" as="geometry" />
        </mxCell>
        <mxCell id="vVGNaH5bN_ZbgL46CGYj-31" value="+ открыт: Boolean" style="text;strokeColor=none;fillColor=none;align=left;verticalAlign=top;spacingLeft=4;spacingRight=4;overflow=hidden;rotatable=0;points=[[0,0.5],[1,0.5]];portConstraint=eastwest;" parent="2" vertex="1">
          <mxGeometry y="114" width="227" height="28" as="geometry" />
        </mxCell>
        <mxCell id="q_-b5fSHFq03yZxw9WrV-7" value="Кинозал" style="swimlane;fontStyle=1;align=center;verticalAlign=top;childLayout=stackLayout;horizontal=1;startSize=30;horizontalStack=0;resizeParent=1;resizeParentMax=0;resizeLast=0;collapsible=0;marginBottom=0;" parent="1" vertex="1">
          <mxGeometry x="580" y="60" width="190" height="170" as="geometry" />
        </mxCell>
        <mxCell id="q_-b5fSHFq03yZxw9WrV-9" value="+ кинотеатр: String {unique}" style="text;strokeColor=none;fillColor=none;align=left;verticalAlign=top;spacingLeft=4;spacingRight=4;overflow=hidden;rotatable=0;points=[[0,0.5],[1,0.5]];portConstraint=eastwest;" parent="q_-b5fSHFq03yZxw9WrV-7" vertex="1">
          <mxGeometry y="30" width="190" height="28" as="geometry" />
        </mxCell>
        <mxCell id="q_-b5fSHFq03yZxw9WrV-8" value="+ номер: Integer {notNull, unique}." style="text;strokeColor=none;fillColor=none;align=left;verticalAlign=top;spacingLeft=4;spacingRight=4;overflow=hidden;rotatable=0;points=[[0,0.5],[1,0.5]];portConstraint=eastwest;" parent="q_-b5fSHFq03yZxw9WrV-7" vertex="1">
          <mxGeometry y="58" width="190" height="28" as="geometry" />
        </mxCell>
        <mxCell id="q_-b5fSHFq03yZxw9WrV-10" value="+ число рядов: Integer {&gt;0}" style="text;strokeColor=none;fillColor=none;align=left;verticalAlign=top;spacingLeft=4;spacingRight=4;overflow=hidden;rotatable=0;points=[[0,0.5],[1,0.5]];portConstraint=eastwest;" parent="q_-b5fSHFq03yZxw9WrV-7" vertex="1">
          <mxGeometry y="86" width="190" height="28" as="geometry" />
        </mxCell>
        <mxCell id="q_-b5fSHFq03yZxw9WrV-18" value="+ число мест в ряду: Integer {&gt;0}" style="text;strokeColor=none;fillColor=none;align=left;verticalAlign=top;spacingLeft=4;spacingRight=4;overflow=hidden;rotatable=0;points=[[0,0.5],[1,0.5]];portConstraint=eastwest;" parent="q_-b5fSHFq03yZxw9WrV-7" vertex="1">
          <mxGeometry y="114" width="190" height="28" as="geometry" />
        </mxCell>
        <mxCell id="vVGNaH5bN_ZbgL46CGYj-28" value="+ работает: Boolean" style="text;strokeColor=none;fillColor=none;align=left;verticalAlign=top;spacingLeft=4;spacingRight=4;overflow=hidden;rotatable=0;points=[[0,0.5],[1,0.5]];portConstraint=eastwest;" parent="q_-b5fSHFq03yZxw9WrV-7" vertex="1">
          <mxGeometry y="142" width="190" height="28" as="geometry" />
        </mxCell>
        <mxCell id="q_-b5fSHFq03yZxw9WrV-12" value="Фильм" style="swimlane;fontStyle=1;align=center;verticalAlign=top;childLayout=stackLayout;horizontal=1;startSize=30;horizontalStack=0;resizeParent=1;resizeParentMax=0;resizeLast=0;collapsible=0;marginBottom=0;" parent="1" vertex="1">
          <mxGeometry x="151.25" y="290" width="220" height="198" as="geometry" />
        </mxCell>
        <mxCell id="q_-b5fSHFq03yZxw9WrV-13" value="+ название: String" style="text;strokeColor=none;fillColor=none;align=left;verticalAlign=top;spacingLeft=4;spacingRight=4;overflow=hidden;rotatable=0;points=[[0,0.5],[1,0.5]];portConstraint=eastwest;" parent="q_-b5fSHFq03yZxw9WrV-12" vertex="1">
          <mxGeometry y="30" width="220" height="28" as="geometry" />
        </mxCell>
        <mxCell id="q_-b5fSHFq03yZxw9WrV-14" value="+ дата выхода: String" style="text;strokeColor=none;fillColor=none;align=left;verticalAlign=top;spacingLeft=4;spacingRight=4;overflow=hidden;rotatable=0;points=[[0,0.5],[1,0.5]];portConstraint=eastwest;" parent="q_-b5fSHFq03yZxw9WrV-12" vertex="1">
          <mxGeometry y="58" width="220" height="28" as="geometry" />
        </mxCell>
        <mxCell id="q_-b5fSHFq03yZxw9WrV-15" value="+ жанр: String" style="text;strokeColor=none;fillColor=none;align=left;verticalAlign=top;spacingLeft=4;spacingRight=4;overflow=hidden;rotatable=0;points=[[0,0.5],[1,0.5]];portConstraint=eastwest;" parent="q_-b5fSHFq03yZxw9WrV-12" vertex="1">
          <mxGeometry y="86" width="220" height="28" as="geometry" />
        </mxCell>
        <mxCell id="vVGNaH5bN_ZbgL46CGYj-25" value="+ производство: String" style="text;strokeColor=none;fillColor=none;align=left;verticalAlign=top;spacingLeft=4;spacingRight=4;overflow=hidden;rotatable=0;points=[[0,0.5],[1,0.5]];portConstraint=eastwest;" parent="q_-b5fSHFq03yZxw9WrV-12" vertex="1">
          <mxGeometry y="114" width="220" height="28" as="geometry" />
        </mxCell>
        <mxCell id="vVGNaH5bN_ZbgL46CGYj-26" value="+ длительность: Real {≥0}" style="text;strokeColor=none;fillColor=none;align=left;verticalAlign=top;spacingLeft=4;spacingRight=4;overflow=hidden;rotatable=0;points=[[0,0.5],[1,0.5]];portConstraint=eastwest;" parent="q_-b5fSHFq03yZxw9WrV-12" vertex="1">
          <mxGeometry y="142" width="220" height="28" as="geometry" />
        </mxCell>
        <mxCell id="yL_lYO62eZ4KJwtUH8HO-12" value="+ возрастное ограничение: Integer" style="text;strokeColor=none;fillColor=none;align=left;verticalAlign=top;spacingLeft=4;spacingRight=4;overflow=hidden;rotatable=0;points=[[0,0.5],[1,0.5]];portConstraint=eastwest;" vertex="1" parent="q_-b5fSHFq03yZxw9WrV-12">
          <mxGeometry y="170" width="220" height="28" as="geometry" />
        </mxCell>
        <mxCell id="q_-b5fSHFq03yZxw9WrV-44" style="edgeStyle=orthogonalEdgeStyle;rounded=0;orthogonalLoop=1;jettySize=auto;html=1;exitX=1;exitY=0.5;exitDx=0;exitDy=0;endArrow=none;endFill=0;" parent="1" source="Hnir3Y5sHZOj_dVIKYjc-41" target="q_-b5fSHFq03yZxw9WrV-31" edge="1">
          <mxGeometry relative="1" as="geometry" />
        </mxCell>
        <mxCell id="q_-b5fSHFq03yZxw9WrV-26" value="Сеанс" style="swimlane;fontStyle=1;align=center;verticalAlign=top;childLayout=stackLayout;horizontal=1;startSize=30;horizontalStack=0;resizeParent=1;resizeParentMax=0;resizeLast=0;collapsible=0;marginBottom=0;" parent="1" vertex="1">
          <mxGeometry x="430" y="290" width="140" height="114" as="geometry" />
        </mxCell>
        <mxCell id="q_-b5fSHFq03yZxw9WrV-27" value="+ дата: String" style="text;strokeColor=none;fillColor=none;align=left;verticalAlign=top;spacingLeft=4;spacingRight=4;overflow=hidden;rotatable=0;points=[[0,0.5],[1,0.5]];portConstraint=eastwest;" parent="q_-b5fSHFq03yZxw9WrV-26" vertex="1">
          <mxGeometry y="30" width="140" height="28" as="geometry" />
        </mxCell>
        <mxCell id="q_-b5fSHFq03yZxw9WrV-28" value="+ время: String" style="text;strokeColor=none;fillColor=none;align=left;verticalAlign=top;spacingLeft=4;spacingRight=4;overflow=hidden;rotatable=0;points=[[0,0.5],[1,0.5]];portConstraint=eastwest;" parent="q_-b5fSHFq03yZxw9WrV-26" vertex="1">
          <mxGeometry y="58" width="140" height="28" as="geometry" />
        </mxCell>
        <mxCell id="q_-b5fSHFq03yZxw9WrV-29" value="+ цена: Real {≥0}&#xa;" style="text;strokeColor=none;fillColor=none;align=left;verticalAlign=top;spacingLeft=4;spacingRight=4;overflow=hidden;rotatable=0;points=[[0,0.5],[1,0.5]];portConstraint=eastwest;" parent="q_-b5fSHFq03yZxw9WrV-26" vertex="1">
          <mxGeometry y="86" width="140" height="28" as="geometry" />
        </mxCell>
        <mxCell id="q_-b5fSHFq03yZxw9WrV-31" value="Билет" style="swimlane;fontStyle=1;align=center;verticalAlign=top;childLayout=stackLayout;horizontal=1;startSize=30;horizontalStack=0;resizeParent=1;resizeParentMax=0;resizeLast=0;collapsible=0;marginBottom=0;" parent="1" vertex="1">
          <mxGeometry x="430" y="560" width="140" height="114" as="geometry" />
        </mxCell>
        <mxCell id="q_-b5fSHFq03yZxw9WrV-33" value="+ ряд: Integer {≥0}" style="text;strokeColor=none;fillColor=none;align=left;verticalAlign=top;spacingLeft=4;spacingRight=4;overflow=hidden;rotatable=0;points=[[0,0.5],[1,0.5]];portConstraint=eastwest;" parent="q_-b5fSHFq03yZxw9WrV-31" vertex="1">
          <mxGeometry y="30" width="140" height="28" as="geometry" />
        </mxCell>
        <mxCell id="q_-b5fSHFq03yZxw9WrV-34" value="+ место: Integer {≥0}" style="text;strokeColor=none;fillColor=none;align=left;verticalAlign=top;spacingLeft=4;spacingRight=4;overflow=hidden;rotatable=0;points=[[0,0.5],[1,0.5]];portConstraint=eastwest;" parent="q_-b5fSHFq03yZxw9WrV-31" vertex="1">
          <mxGeometry y="58" width="140" height="28" as="geometry" />
        </mxCell>
        <mxCell id="yL_lYO62eZ4KJwtUH8HO-10" value="+ сеанс: String" style="text;strokeColor=none;fillColor=none;align=left;verticalAlign=top;spacingLeft=4;spacingRight=4;overflow=hidden;rotatable=0;points=[[0,0.5],[1,0.5]];portConstraint=eastwest;" vertex="1" parent="q_-b5fSHFq03yZxw9WrV-31">
          <mxGeometry y="86" width="140" height="28" as="geometry" />
        </mxCell>
        <mxCell id="q_-b5fSHFq03yZxw9WrV-36" value="Зритель" style="swimlane;fontStyle=1;align=center;verticalAlign=top;childLayout=stackLayout;horizontal=1;startSize=30;horizontalStack=0;resizeParent=1;resizeParentMax=0;resizeLast=0;collapsible=0;marginBottom=0;" parent="1" vertex="1">
          <mxGeometry x="640" y="588" width="160" height="58" as="geometry" />
        </mxCell>
        <mxCell id="q_-b5fSHFq03yZxw9WrV-37" value="+ Ф. И. О.: String" style="text;strokeColor=none;fillColor=none;align=left;verticalAlign=top;spacingLeft=4;spacingRight=4;overflow=hidden;rotatable=0;points=[[0,0.5],[1,0.5]];portConstraint=eastwest;" parent="q_-b5fSHFq03yZxw9WrV-36" vertex="1">
          <mxGeometry y="30" width="160" height="28" as="geometry" />
        </mxCell>
        <mxCell id="q_-b5fSHFq03yZxw9WrV-43" style="edgeStyle=orthogonalEdgeStyle;rounded=0;orthogonalLoop=1;jettySize=auto;html=1;exitX=1;exitY=0.5;exitDx=0;exitDy=0;entryX=1;entryY=0.5;entryDx=0;entryDy=0;endArrow=none;endFill=0;" parent="1" source="q_-b5fSHFq03yZxw9WrV-28" target="Hnir3Y5sHZOj_dVIKYjc-28" edge="1">
          <mxGeometry relative="1" as="geometry" />
        </mxCell>
        <mxCell id="q_-b5fSHFq03yZxw9WrV-46" style="edgeStyle=orthogonalEdgeStyle;rounded=0;orthogonalLoop=1;jettySize=auto;html=1;exitX=1;exitY=0.5;exitDx=0;exitDy=0;entryX=0;entryY=0.5;entryDx=0;entryDy=0;" parent="1" source="q_-b5fSHFq03yZxw9WrV-14" edge="1" target="q_-b5fSHFq03yZxw9WrV-28">
          <mxGeometry relative="1" as="geometry">
            <mxPoint x="370" y="410" as="sourcePoint" />
            <mxPoint x="390" y="370" as="targetPoint" />
          </mxGeometry>
        </mxCell>
        <mxCell id="yL_lYO62eZ4KJwtUH8HO-13" style="edgeStyle=none;curved=1;rounded=0;orthogonalLoop=1;jettySize=auto;html=1;exitX=0.75;exitY=0;exitDx=0;exitDy=0;fontSize=12;startSize=8;endSize=8;entryX=1;entryY=0.5;entryDx=0;entryDy=0;" edge="1" parent="1" source="Hnir3Y5sHZOj_dVIKYjc-6" target="Hnir3Y5sHZOj_dVIKYjc-6">
          <mxGeometry relative="1" as="geometry">
            <mxPoint x="400" y="760" as="targetPoint" />
            <Array as="points">
              <mxPoint x="290" y="740" />
              <mxPoint x="380" y="730" />
              <mxPoint x="410" y="790" />
            </Array>
          </mxGeometry>
        </mxCell>
        <mxCell id="Hnir3Y5sHZOj_dVIKYjc-6" value="Сотрудник" style="swimlane;fontStyle=1;align=center;verticalAlign=top;childLayout=stackLayout;horizontal=1;startSize=30;horizontalStack=0;resizeParent=1;resizeParentMax=0;resizeLast=0;collapsible=0;marginBottom=0;" parent="1" vertex="1">
          <mxGeometry x="162.5" y="790" width="197.5" height="58" as="geometry" />
        </mxCell>
        <mxCell id="Hnir3Y5sHZOj_dVIKYjc-7" value="+ Ф. И. О.: String" style="text;strokeColor=none;fillColor=none;align=left;verticalAlign=top;spacingLeft=4;spacingRight=4;overflow=hidden;rotatable=0;points=[[0,0.5],[1,0.5]];portConstraint=eastwest;" parent="Hnir3Y5sHZOj_dVIKYjc-6" vertex="1">
          <mxGeometry y="30" width="197.5" height="28" as="geometry" />
        </mxCell>
        <mxCell id="Hnir3Y5sHZOj_dVIKYjc-11" value="Договор" style="swimlane;fontStyle=1;align=center;verticalAlign=top;childLayout=stackLayout;horizontal=1;startSize=30;horizontalStack=0;resizeParent=1;resizeParentMax=0;resizeLast=0;collapsible=0;marginBottom=0;" parent="1" vertex="1">
          <mxGeometry x="162.5" y="560" width="197.5" height="114" as="geometry" />
        </mxCell>
        <mxCell id="Hnir3Y5sHZOj_dVIKYjc-12" value="+ дата заключения: String" style="text;strokeColor=none;fillColor=none;align=left;verticalAlign=top;spacingLeft=4;spacingRight=4;overflow=hidden;rotatable=0;points=[[0,0.5],[1,0.5]];portConstraint=eastwest;" parent="Hnir3Y5sHZOj_dVIKYjc-11" vertex="1">
          <mxGeometry y="30" width="197.5" height="28" as="geometry" />
        </mxCell>
        <mxCell id="Hnir3Y5sHZOj_dVIKYjc-13" value="+ дата окончания: String" style="text;strokeColor=none;fillColor=none;align=left;verticalAlign=top;spacingLeft=4;spacingRight=4;overflow=hidden;rotatable=0;points=[[0,0.5],[1,0.5]];portConstraint=eastwest;" parent="Hnir3Y5sHZOj_dVIKYjc-11" vertex="1">
          <mxGeometry y="58" width="197.5" height="28" as="geometry" />
        </mxCell>
        <mxCell id="Hnir3Y5sHZOj_dVIKYjc-14" value="+ оплата в месяц: Real {≥0}" style="text;strokeColor=none;fillColor=none;align=left;verticalAlign=top;spacingLeft=4;spacingRight=4;overflow=hidden;rotatable=0;points=[[0,0.5],[1,0.5]];portConstraint=eastwest;" parent="Hnir3Y5sHZOj_dVIKYjc-11" vertex="1">
          <mxGeometry y="86" width="197.5" height="28" as="geometry" />
        </mxCell>
        <mxCell id="Hnir3Y5sHZOj_dVIKYjc-16" value="Поставщик" style="swimlane;fontStyle=1;align=center;verticalAlign=top;childLayout=stackLayout;horizontal=1;startSize=30;horizontalStack=0;resizeParent=1;resizeParentMax=0;resizeLast=0;collapsible=0;marginBottom=0;" parent="1" vertex="1">
          <mxGeometry x="-170" y="290" width="227" height="114" as="geometry" />
        </mxCell>
        <mxCell id="Hnir3Y5sHZOj_dVIKYjc-17" value="+ организация: String" style="text;strokeColor=none;fillColor=none;align=left;verticalAlign=top;spacingLeft=4;spacingRight=4;overflow=hidden;rotatable=0;points=[[0,0.5],[1,0.5]];portConstraint=eastwest;" parent="Hnir3Y5sHZOj_dVIKYjc-16" vertex="1">
          <mxGeometry y="30" width="227" height="28" as="geometry" />
        </mxCell>
        <mxCell id="Hnir3Y5sHZOj_dVIKYjc-18" value="# ИНН: Integer" style="text;strokeColor=none;fillColor=none;align=left;verticalAlign=top;spacingLeft=4;spacingRight=4;overflow=hidden;rotatable=0;points=[[0,0.5],[1,0.5]];portConstraint=eastwest;" parent="Hnir3Y5sHZOj_dVIKYjc-16" vertex="1">
          <mxGeometry y="58" width="227" height="28" as="geometry" />
        </mxCell>
        <mxCell id="Hnir3Y5sHZOj_dVIKYjc-19" value="# счёт: Integer" style="text;strokeColor=none;fillColor=none;align=left;verticalAlign=top;spacingLeft=4;spacingRight=4;overflow=hidden;rotatable=0;points=[[0,0.5],[1,0.5]];portConstraint=eastwest;" parent="Hnir3Y5sHZOj_dVIKYjc-16" vertex="1">
          <mxGeometry y="86" width="227" height="28" as="geometry" />
        </mxCell>
        <mxCell id="Hnir3Y5sHZOj_dVIKYjc-23" value="" style="rhombus;whiteSpace=wrap;html=1;gradientColor=none;fillStyle=auto;fillColor=#000000;" parent="1" vertex="1">
          <mxGeometry x="347" y="144.5" width="30" height="15" as="geometry" />
        </mxCell>
        <mxCell id="Hnir3Y5sHZOj_dVIKYjc-28" value="" style="rhombus;whiteSpace=wrap;html=1;gradientColor=none;fillStyle=auto;fillColor=#000000;direction=south;" parent="1" vertex="1">
          <mxGeometry x="657.5" y="230" width="15" height="30" as="geometry" />
        </mxCell>
        <mxCell id="Hnir3Y5sHZOj_dVIKYjc-37" value="" style="endArrow=classic;html=1;rounded=0;entryX=0.5;entryY=1;entryDx=0;entryDy=0;exitX=0.5;exitY=0;exitDx=0;exitDy=0;" parent="1" source="Hnir3Y5sHZOj_dVIKYjc-11" target="q_-b5fSHFq03yZxw9WrV-12" edge="1">
          <mxGeometry width="50" height="50" relative="1" as="geometry">
            <mxPoint x="290" y="530" as="sourcePoint" />
            <mxPoint x="270" y="520" as="targetPoint" />
          </mxGeometry>
        </mxCell>
        <mxCell id="Hnir3Y5sHZOj_dVIKYjc-38" style="edgeStyle=orthogonalEdgeStyle;rounded=0;orthogonalLoop=1;jettySize=auto;html=1;exitX=1;exitY=0.5;exitDx=0;exitDy=0;entryX=0;entryY=0.5;entryDx=0;entryDy=0;endArrow=none;endFill=0;" parent="1" source="Hnir3Y5sHZOj_dVIKYjc-39" target="q_-b5fSHFq03yZxw9WrV-14" edge="1">
          <mxGeometry relative="1" as="geometry">
            <mxPoint x="255" y="457.5" as="targetPoint" />
          </mxGeometry>
        </mxCell>
        <mxCell id="Hnir3Y5sHZOj_dVIKYjc-39" value="" style="rhombus;whiteSpace=wrap;html=1;gradientColor=none;fillStyle=auto;fillColor=#FFFFFF;" parent="1" vertex="1">
          <mxGeometry x="57" y="354.5" width="30" height="15" as="geometry" />
        </mxCell>
        <mxCell id="Hnir3Y5sHZOj_dVIKYjc-41" value="" style="rhombus;whiteSpace=wrap;html=1;gradientColor=none;fillStyle=auto;fillColor=#000000;direction=south;" parent="1" vertex="1">
          <mxGeometry x="492.5" y="404" width="15" height="30" as="geometry" />
        </mxCell>
        <mxCell id="vVGNaH5bN_ZbgL46CGYj-6" style="edgeStyle=orthogonalEdgeStyle;rounded=0;orthogonalLoop=1;jettySize=auto;html=1;exitX=1;exitY=0.5;exitDx=0;exitDy=0;entryX=-0.009;entryY=0.75;entryDx=0;entryDy=0;endArrow=none;endFill=0;entryPerimeter=0;" parent="1" source="vVGNaH5bN_ZbgL46CGYj-7" target="Hnir3Y5sHZOj_dVIKYjc-13" edge="1">
          <mxGeometry relative="1" as="geometry">
            <mxPoint x="93" y="507.5" as="targetPoint" />
          </mxGeometry>
        </mxCell>
        <mxCell id="vVGNaH5bN_ZbgL46CGYj-7" value="" style="rhombus;whiteSpace=wrap;html=1;gradientColor=none;fillStyle=auto;fillColor=#000000;direction=south;" parent="1" vertex="1">
          <mxGeometry x="-64" y="410" width="15" height="30" as="geometry" />
        </mxCell>
        <mxCell id="vVGNaH5bN_ZbgL46CGYj-30" style="edgeStyle=orthogonalEdgeStyle;rounded=0;orthogonalLoop=1;jettySize=auto;html=1;exitX=1;exitY=0.5;exitDx=0;exitDy=0;endArrow=none;endFill=0;" parent="1" source="Hnir3Y5sHZOj_dVIKYjc-23" target="q_-b5fSHFq03yZxw9WrV-7" edge="1">
          <mxGeometry relative="1" as="geometry">
            <mxPoint x="380" y="173" as="sourcePoint" />
            <mxPoint x="475" y="90" as="targetPoint" />
            <Array as="points">
              <mxPoint x="530" y="152" />
              <mxPoint x="530" y="152" />
            </Array>
          </mxGeometry>
        </mxCell>
        <mxCell id="vVGNaH5bN_ZbgL46CGYj-35" value="" style="endArrow=classic;html=1;rounded=0;entryX=1;entryY=0.5;entryDx=0;entryDy=0;exitX=0;exitY=0.5;exitDx=0;exitDy=0;" parent="1" source="q_-b5fSHFq03yZxw9WrV-36" target="q_-b5fSHFq03yZxw9WrV-31" edge="1">
          <mxGeometry width="50" height="50" relative="1" as="geometry">
            <mxPoint x="620" y="610" as="sourcePoint" />
            <mxPoint x="400" y="500" as="targetPoint" />
          </mxGeometry>
        </mxCell>
        <mxCell id="yL_lYO62eZ4KJwtUH8HO-6" style="edgeStyle=none;curved=1;rounded=0;orthogonalLoop=1;jettySize=auto;html=1;exitX=0.5;exitY=0;exitDx=0;exitDy=0;entryX=0.494;entryY=1.048;entryDx=0;entryDy=0;entryPerimeter=0;fontSize=12;startSize=8;endSize=8;" edge="1" parent="1" source="Hnir3Y5sHZOj_dVIKYjc-6" target="Hnir3Y5sHZOj_dVIKYjc-14">
          <mxGeometry relative="1" as="geometry" />
        </mxCell>
        <mxCell id="yL_lYO62eZ4KJwtUH8HO-14" value="&lt;font style=&quot;font-size: 12px;&quot;&gt;+ начальник&lt;/font&gt;" style="text;html=1;align=center;verticalAlign=middle;resizable=0;points=[];autosize=1;strokeColor=none;fillColor=none;fontSize=16;" vertex="1" parent="1">
          <mxGeometry x="299" y="700" width="90" height="30" as="geometry" />
        </mxCell>
        <mxCell id="yL_lYO62eZ4KJwtUH8HO-15" value="Касса" style="swimlane;fontStyle=1;align=center;verticalAlign=top;childLayout=stackLayout;horizontal=1;startSize=30;horizontalStack=0;resizeParent=1;resizeParentMax=0;resizeLast=0;collapsible=0;marginBottom=0;" vertex="1" parent="1">
          <mxGeometry x="-190" y="88" width="197.5" height="114" as="geometry" />
        </mxCell>
        <mxCell id="yL_lYO62eZ4KJwtUH8HO-16" value="+ номер: Integer {unique, &gt;0}" style="text;strokeColor=none;fillColor=none;align=left;verticalAlign=top;spacingLeft=4;spacingRight=4;overflow=hidden;rotatable=0;points=[[0,0.5],[1,0.5]];portConstraint=eastwest;" vertex="1" parent="yL_lYO62eZ4KJwtUH8HO-15">
          <mxGeometry y="30" width="197.5" height="28" as="geometry" />
        </mxCell>
        <mxCell id="yL_lYO62eZ4KJwtUH8HO-17" value="+ График работы: String" style="text;strokeColor=none;fillColor=none;align=left;verticalAlign=top;spacingLeft=4;spacingRight=4;overflow=hidden;rotatable=0;points=[[0,0.5],[1,0.5]];portConstraint=eastwest;" vertex="1" parent="yL_lYO62eZ4KJwtUH8HO-15">
          <mxGeometry y="58" width="197.5" height="28" as="geometry" />
        </mxCell>
        <mxCell id="yL_lYO62eZ4KJwtUH8HO-18" value="+ Сотрудник: String" style="text;strokeColor=none;fillColor=none;align=left;verticalAlign=top;spacingLeft=4;spacingRight=4;overflow=hidden;rotatable=0;points=[[0,0.5],[1,0.5]];portConstraint=eastwest;" vertex="1" parent="yL_lYO62eZ4KJwtUH8HO-15">
          <mxGeometry y="86" width="197.5" height="28" as="geometry" />
        </mxCell>
        <mxCell id="yL_lYO62eZ4KJwtUH8HO-20" value="" style="rhombus;whiteSpace=wrap;html=1;gradientColor=none;fillStyle=auto;fillColor=#000000;" vertex="1" parent="1">
          <mxGeometry x="90" y="144.5" width="30" height="15" as="geometry" />
        </mxCell>
        <mxCell id="yL_lYO62eZ4KJwtUH8HO-22" value="" style="endArrow=none;html=1;rounded=0;fontSize=12;startSize=8;endSize=8;curved=1;exitX=1.003;exitY=0.202;exitDx=0;exitDy=0;exitPerimeter=0;entryX=0;entryY=0.5;entryDx=0;entryDy=0;" edge="1" parent="1">
          <mxGeometry width="50" height="50" relative="1" as="geometry">
            <mxPoint x="7.5025000000000865" y="151.826" as="sourcePoint" />
            <mxPoint x="89.41" y="152.17" as="targetPoint" />
          </mxGeometry>
        </mxCell>
        <mxCell id="yL_lYO62eZ4KJwtUH8HO-23" value="" style="endArrow=none;html=1;rounded=0;fontSize=12;startSize=8;endSize=8;curved=1;entryX=0;entryY=0.5;entryDx=0;entryDy=0;" edge="1" parent="1" target="Hnir3Y5sHZOj_dVIKYjc-14">
          <mxGeometry width="50" height="50" relative="1" as="geometry">
            <mxPoint x="-240" y="660" as="sourcePoint" />
            <mxPoint x="70" y="650" as="targetPoint" />
            <Array as="points" />
          </mxGeometry>
        </mxCell>
        <mxCell id="yL_lYO62eZ4KJwtUH8HO-24" value="" style="endArrow=none;html=1;rounded=0;fontSize=12;startSize=8;endSize=8;curved=1;" edge="1" parent="1">
          <mxGeometry width="50" height="50" relative="1" as="geometry">
            <mxPoint x="-240" y="660" as="sourcePoint" />
            <mxPoint x="-240" y="40" as="targetPoint" />
          </mxGeometry>
        </mxCell>
        <mxCell id="yL_lYO62eZ4KJwtUH8HO-26" value="" style="endArrow=none;html=1;rounded=0;fontSize=12;startSize=8;endSize=8;curved=1;" edge="1" parent="1">
          <mxGeometry width="50" height="50" relative="1" as="geometry">
            <mxPoint x="-240" y="40" as="sourcePoint" />
            <mxPoint x="240" y="40" as="targetPoint" />
          </mxGeometry>
        </mxCell>
        <mxCell id="yL_lYO62eZ4KJwtUH8HO-27" value="" style="endArrow=classic;html=1;rounded=0;fontSize=12;startSize=8;endSize=8;curved=1;" edge="1" parent="1">
          <mxGeometry width="50" height="50" relative="1" as="geometry">
            <mxPoint x="240" y="40" as="sourcePoint" />
            <mxPoint x="240" y="80" as="targetPoint" />
          </mxGeometry>
        </mxCell>
      </root>
    </mxGraphModel>
  </diagram>
</mxfile>
